<svg xmlns="http://www.w3.org/2000/svg" xmlns:xlink="http://www.w3.org/1999/xlink" version="1.1" x="0px" y="0px" viewBox="0 0 100 125" enable-background="new 0 0 100 100" xml:space="preserve"><g><g><g><path d="M15.145,46.997c-0.128,0-0.256-0.049-0.354-0.146c-0.195-0.195-0.195-0.512,0-0.707l6.582-6.582l-6.582-6.582     c-0.195-0.195-0.195-0.512,0-0.707s0.512-0.195,0.707,0l6.936,6.936c0.195,0.195,0.195,0.512,0,0.707l-6.936,6.936     C15.401,46.948,15.273,46.997,15.145,46.997z"/></g><g><path d="M22.081,40.062H6.858c-0.276,0-0.5-0.224-0.5-0.5s0.224-0.5,0.5-0.5h15.223c0.276,0,0.5,0.224,0.5,0.5     S22.357,40.062,22.081,40.062z"/></g></g><g><g><path d="M84.855,46.997c-0.128,0-0.256-0.049-0.354-0.146l-6.936-6.936c-0.195-0.195-0.195-0.512,0-0.707l6.936-6.936     c0.195-0.195,0.512-0.195,0.707,0s0.195,0.512,0,0.707l-6.582,6.582l6.582,6.582c0.195,0.195,0.195,0.512,0,0.707     C85.111,46.948,84.983,46.997,84.855,46.997z"/></g><g><path d="M93.142,40.062H77.919c-0.276,0-0.5-0.224-0.5-0.5s0.224-0.5,0.5-0.5h15.223c0.276,0,0.5,0.224,0.5,0.5     S93.418,40.062,93.142,40.062z"/></g></g></g><g><path d="M50.001,51.163c-0.367,0-0.72-0.203-0.896-0.553c-0.247-0.494-0.048-1.094,0.446-1.341l0.002-0.001   c0.495-0.247,1.095-0.046,1.342,0.447c0.247,0.494,0.047,1.095-0.447,1.342C50.305,51.128,50.152,51.163,50.001,51.163z"/></g><g><g><path d="M27.368,59.708c-0.092,0-0.185-0.025-0.268-0.078c-0.233-0.148-0.302-0.457-0.154-0.69    c2.331-3.667,5.11-10.004,5.111-19.377c0-16.725-8.876-30.494-8.966-30.631c-0.151-0.231-0.086-0.541,0.145-0.692    c0.229-0.151,0.541-0.086,0.692,0.145c0.091,0.14,9.129,14.158,9.129,31.178c0,9.614-2.865,16.136-5.267,19.914    C27.695,59.626,27.533,59.708,27.368,59.708z"/></g><g><path d="M73.123,60.451c-0.16,0-0.316-0.076-0.414-0.218c-2.63-3.852-5.766-10.565-5.766-20.67c0-17.02,9.039-31.039,9.13-31.178    c0.151-0.23,0.461-0.295,0.692-0.145c0.231,0.151,0.296,0.461,0.145,0.692c-0.09,0.137-8.967,13.918-8.967,30.631    c0,9.85,3.041,16.371,5.592,20.107c0.156,0.228,0.097,0.539-0.131,0.695C73.318,60.423,73.22,60.451,73.123,60.451z"/></g></g><g><path d="M70.188,21.612H29.813c-0.276,0-0.5-0.224-0.5-0.5s0.224-0.5,0.5-0.5h40.375c0.276,0,0.5,0.224,0.5,0.5   S70.464,21.612,70.188,21.612z"/></g><g><path d="M49.86,69.059c-15.954,0-22.711-8.46-22.991-8.82c-0.169-0.218-0.13-0.531,0.088-0.701   c0.217-0.171,0.531-0.131,0.702,0.087c0.066,0.084,6.766,8.434,22.202,8.434c15.442,0,22.42-8.357,22.489-8.442   c0.173-0.214,0.488-0.247,0.703-0.073c0.214,0.174,0.247,0.488,0.074,0.703C72.834,60.606,65.808,69.059,49.86,69.059z"/></g><g><path d="M26.684,91.84c-0.178,0-0.343-0.093-0.433-0.247c-2.89-4.961-4.482-10.332-4.482-15.125c0-5.374,2.006-13.612,5.247-17.551   c0.176-0.213,0.491-0.244,0.704-0.068c0.213,0.176,0.244,0.491,0.068,0.704c-3.101,3.768-5.02,11.714-5.02,16.916   c0,4.538,1.49,9.63,4.201,14.37h46.058c2.712-4.739,4.203-9.832,4.203-14.37c0-4.984-1.712-12.608-4.478-16.232   c-0.167-0.219-0.125-0.533,0.094-0.701c0.219-0.168,0.533-0.125,0.701,0.094c2.893,3.79,4.683,11.691,4.683,16.838   c0,4.791-1.591,10.161-4.481,15.122c-0.09,0.154-0.254,0.249-0.432,0.249H26.723C26.71,91.839,26.696,91.839,26.684,91.84z"/></g><g><path d="M50,91.842c-0.276,0-0.5-0.224-0.5-0.5v-8.812c0-0.276,0.224-0.5,0.5-0.5s0.5,0.224,0.5,0.5v8.812   C50.5,91.618,50.276,91.842,50,91.842z"/></g><g><g><path d="M50,83.029c-0.128,0-0.256-0.049-0.354-0.146l-6.098-6.098c-0.195-0.195-0.195-0.512,0-0.707s0.512-0.195,0.707,0    l6.098,6.098c0.195,0.195,0.195,0.512,0,0.707C50.256,82.98,50.128,83.029,50,83.029z"/></g><g><path d="M50,83.029c-0.128,0-0.256-0.049-0.354-0.146c-0.195-0.195-0.195-0.512,0-0.707l6.098-6.098    c0.195-0.195,0.512-0.195,0.707,0s0.195,0.512,0,0.707l-6.098,6.098C50.256,82.98,50.128,83.029,50,83.029z"/></g></g><text x="0" y="115" fill="#000000" font-size="5px" font-weight="bold" font-family="'Helvetica Neue', Helvetica, Arial-Unicode, Arial, Sans-serif">Created by Linseed Studio</text><text x="0" y="120" fill="#000000" font-size="5px" font-weight="bold" font-family="'Helvetica Neue', Helvetica, Arial-Unicode, Arial, Sans-serif">from the Noun Project</text></svg>